<svg xmlns="http://www.w3.org/2000/svg" viewBox="0 0 320 180" role="img">
  <rect x="0.00" y="0.00" width="40.00" height="30.00" fill="rgb(177,177,177)"/>
  <rect x="40.00" y="0.00" width="40.00" height="30.00" fill="rgb(194,177,177)"/>
  <rect x="80.00" y="0.00" width="40.00" height="30.00" fill="rgb(211,177,177)"/>
  <rect x="120.00" y="0.00" width="40.00" height="30.00" fill="rgb(228,177,177)"/>
  <rect x="160.00" y="0.00" width="40.00" height="30.00" fill="rgb(245,177,177)"/>
  <rect x="200.00" y="0.00" width="40.00" height="30.00" fill="rgb(6,177,177)"/>
  <rect x="240.00" y="0.00" width="40.00" height="30.00" fill="rgb(23,177,177)"/>
  <rect x="280.00" y="0.00" width="40.00" height="30.00" fill="rgb(40,177,177)"/>
  <rect x="0.00" y="30.00" width="40.00" height="30.00" fill="rgb(177,206,177)"/>
  <rect x="40.00" y="30.00" width="40.00" height="30.00" fill="rgb(194,206,184)"/>
  <rect x="80.00" y="30.00" width="40.00" height="30.00" fill="rgb(211,206,191)"/>
  <rect x="120.00" y="30.00" width="40.00" height="30.00" fill="rgb(228,206,198)"/>
  <rect x="160.00" y="30.00" width="40.00" height="30.00" fill="rgb(245,206,205)"/>
  <rect x="200.00" y="30.00" width="40.00" height="30.00" fill="rgb(6,206,212)"/>
  <rect x="240.00" y="30.00" width="40.00" height="30.00" fill="rgb(23,206,219)"/>
  <rect x="280.00" y="30.00" width="40.00" height="30.00" fill="rgb(40,206,226)"/>
  <rect x="0.00" y="60.00" width="40.00" height="30.00" fill="rgb(177,235,177)"/>
  <rect x="40.00" y="60.00" width="40.00" height="30.00" fill="rgb(194,235,191)"/>
  <rect x="80.00" y="60.00" width="40.00" height="30.00" fill="rgb(211,235,205)"/>
  <rect x="120.00" y="60.00" width="40.00" height="30.00" fill="rgb(228,235,219)"/>
  <rect x="160.00" y="60.00" width="40.00" height="30.00" fill="rgb(245,235,233)"/>
  <rect x="200.00" y="60.00" width="40.00" height="30.00" fill="rgb(6,235,247)"/>
  <rect x="240.00" y="60.00" width="40.00" height="30.00" fill="rgb(23,235,5)"/>
  <rect x="280.00" y="60.00" width="40.00" height="30.00" fill="rgb(40,235,19)"/>
  <rect x="0.00" y="90.00" width="40.00" height="30.00" fill="rgb(177,8,177)"/>
  <rect x="40.00" y="90.00" width="40.00" height="30.00" fill="rgb(194,8,198)"/>
  <rect x="80.00" y="90.00" width="40.00" height="30.00" fill="rgb(211,8,219)"/>
  <rect x="120.00" y="90.00" width="40.00" height="30.00" fill="rgb(228,8,240)"/>
  <rect x="160.00" y="90.00" width="40.00" height="30.00" fill="rgb(245,8,5)"/>
  <rect x="200.00" y="90.00" width="40.00" height="30.00" fill="rgb(6,8,26)"/>
  <rect x="240.00" y="90.00" width="40.00" height="30.00" fill="rgb(23,8,47)"/>
  <rect x="280.00" y="90.00" width="40.00" height="30.00" fill="rgb(40,8,68)"/>
  <rect x="0.00" y="120.00" width="40.00" height="30.00" fill="rgb(177,37,177)"/>
  <rect x="40.00" y="120.00" width="40.00" height="30.00" fill="rgb(194,37,205)"/>
  <rect x="80.00" y="120.00" width="40.00" height="30.00" fill="rgb(211,37,233)"/>
  <rect x="120.00" y="120.00" width="40.00" height="30.00" fill="rgb(228,37,5)"/>
  <rect x="160.00" y="120.00" width="40.00" height="30.00" fill="rgb(245,37,33)"/>
  <rect x="200.00" y="120.00" width="40.00" height="30.00" fill="rgb(6,37,61)"/>
  <rect x="240.00" y="120.00" width="40.00" height="30.00" fill="rgb(23,37,89)"/>
  <rect x="280.00" y="120.00" width="40.00" height="30.00" fill="rgb(40,37,117)"/>
  <rect x="0.00" y="150.00" width="40.00" height="30.00" fill="rgb(177,66,177)"/>
  <rect x="40.00" y="150.00" width="40.00" height="30.00" fill="rgb(194,66,212)"/>
  <rect x="80.00" y="150.00" width="40.00" height="30.00" fill="rgb(211,66,247)"/>
  <rect x="120.00" y="150.00" width="40.00" height="30.00" fill="rgb(228,66,26)"/>
  <rect x="160.00" y="150.00" width="40.00" height="30.00" fill="rgb(245,66,61)"/>
  <rect x="200.00" y="150.00" width="40.00" height="30.00" fill="rgb(6,66,96)"/>
  <rect x="240.00" y="150.00" width="40.00" height="30.00" fill="rgb(23,66,131)"/>
  <rect x="280.00" y="150.00" width="40.00" height="30.00" fill="rgb(40,66,166)"/>
  <text x="18" y="162" fill="#111412" font-family="Arial, sans-serif" font-size="14">pseudo-view pose 2</text>
</svg>
